<?xml version="1.0" encoding="UTF-8"?>
<svg width="75px" height="40px" viewBox="0 0 75 40" version="1.1" xmlns="http://www.w3.org/2000/svg" xmlns:xlink="http://www.w3.org/1999/xlink">
    <title>logo_vng_gs</title>
    <defs>
        <polygon id="path-1" points="45.8333333 0.000809618265 0 0.000809618265 0 40 45.8333333 40 45.8333333 0"></polygon>
        <polygon id="path-3" points="45.8333333 0.000809618265 0 0.000809618265 0 40 45.8333333 40 45.8333333 0"></polygon>
    </defs>
    <g id="Symbols" stroke="none" stroke-width="1" fill="none" fill-rule="evenodd">
        <g id="Header-WSJG" transform="translate(-40.000000, -58.000000)">
            <g id="Group-5-Copy" transform="translate(40.000000, 43.000000)">
                <g id="logo_vng_gs" transform="translate(0.000000, 15.000000)">
                    <g id="Clipped" transform="translate(29.166667, 0.000000)">
                        <mask id="mask-2" fill="white">
                            <use xlink:href="#path-1"></use>
                        </mask>
                        <g id="a"></g>
                        <path d="M45.8333333,20 C45.8333333,9.01105129 37.0029035,0.0655790795 26.1245586,0.00242885479 C26.1052993,0.00242885479 26.0860399,0 26.065978,0 L19.6357495,0 C18.9175747,0 18.2539537,0.386552467 17.8948663,1.01404686 C17.5357789,1.64154126 17.5357789,2.41464625 17.8948663,3.04214064 C18.2539537,3.66963504 18.9175747,4.05618752 19.6357495,4.05618751 L26.0114097,4.05618751 C34.7246783,4.05618751 41.8153433,11.2083553 41.8153433,20 C41.8153433,28.7924544 34.7246783,35.9446221 26.0114097,35.9446221 L4.01879249,35.9446221 L4.01879249,32.2381897 L0,32.2381897 L0,40 L26.065978,40 L26.065978,39.9991904 C36.971607,39.9668057 45.8333333,31.0083795 45.8333333,20" id="Path" fill="#FFFFFF" fill-rule="nonzero" mask="url(#mask-2)"></path>
                    </g>
                    <g id="Clipped">
                        <mask id="mask-4" fill="white">
                            <use xlink:href="#path-3"></use>
                        </mask>
                        <g id="c"></g>
                        <path d="M0,20 C0,30.9889487 8.83027523,39.9344209 19.7084296,39.9975711 C19.7276887,39.9975711 19.7469477,40 19.7670092,40 L26.1979276,40 C27.3078887,40 28.2076899,39.0921727 28.2076899,37.9723111 C28.2076899,36.8524494 27.3078887,35.9446221 26.1979276,35.9446221 L19.8231815,35.9446221 C11.109263,35.9446221 4.01952459,28.7924544 4.01952459,20 C4.01952459,11.2083553 11.109263,4.05537789 19.8231815,4.05537789 L41.8138087,4.05537789 L41.8138087,7.76181031 L45.8333333,7.76181031 L45.8333333,0 L19.7662068,0 L19.7662068,0.000809618265 C8.86076873,0.0331943489 0,8.99162045 0,20" id="Path" fill="#FFFFFF" fill-rule="nonzero" mask="url(#mask-4)"></path>
                    </g>
                    <path d="M20.774924,22.5636436 L17.0319251,12.8915329 L12.5,12.8915329 L19.0130421,28.7759137 L22.1503441,28.7759137 L28.8722196,12.8915329 L24.581133,12.8915329 L20.774924,22.5636436 Z M42.0119219,22.9988535 L35.668507,12.8915329 L30.537286,12.8915329 L30.537286,28.7766937 L34.5355257,28.7766937 L34.5355257,18.4073112 L41.0565691,28.7766937 L46.0093615,28.7766937 L46.0093615,12.8915329 L42.0119219,12.8915329 L42.0119219,22.9988535 Z M57.4727956,19.1459201 L57.4727956,22.7828084 L60.3028485,22.7828084 L60.3028485,24.8707239 C59.9374582,25.0394133 59.559197,25.1802258 59.1714674,25.2918948 C58.649784,25.4502238 58.0168827,25.5305583 57.2879661,25.5305583 C56.5838534,25.5305583 55.9389502,25.4135664 55.3724596,25.1811425 C54.8217198,24.9597096 54.324594,24.6284161 53.9130261,24.2085498 C53.5013291,23.7832022 53.1828071,23.2805835 52.9768763,22.731332 C52.7592415,22.1627513 52.6488238,21.5231956 52.6488238,20.8337233 C52.6488238,20.1575101 52.7592415,19.522634 52.9768763,18.9462539 C53.1810331,18.3929255 53.4996748,17.8864013 53.9130261,17.4581169 C54.3252192,17.0391625 54.8221942,16.708235 55.3724596,16.4863041 C55.9397504,16.2538802 56.5838534,16.1361084 57.2879661,16.1361084 C58.1393023,16.1361084 58.8554169,16.2538802 59.4139062,16.4863041 C59.9739958,16.7179481 60.4844775,17.0634642 60.9325492,17.514273 L61.1261802,17.7076996 L63.9386302,14.7166066 L63.7489998,14.5442385 C62.9236445,13.7988991 61.9292635,13.2542529 60.8469355,12.9547085 C59.7667627,12.6536494 58.568971,12.5 57.2879661,12.5 C56.0301648,12.5 54.8523764,12.6949865 53.7890062,13.0810598 C52.7538066,13.4480961 51.806134,14.0167939 51.0037606,14.7524841 C50.2236358,15.476274 49.6067371,16.3638526 49.1714674,17.3918215 C48.7369979,18.4174505 48.5161626,19.5756704 48.5161626,20.8337233 C48.5161626,22.0917762 48.7369979,23.2499961 49.1722676,24.2756251 C49.6083373,25.3043739 50.2236358,26.1919525 51.0037606,26.9149625 C51.7830853,27.6371925 52.7208353,28.1995336 53.7882061,28.5863868 C54.8523764,28.9716802 56.0301648,29.1666667 57.2879661,29.1666667 C58.4593535,29.1666667 59.6243399,29.0481149 60.7525204,28.8141311 C61.8919512,28.576345 62.9928912,28.1885342 64.025044,27.6613708 L64.1666667,27.5911757 L64.1666667,19.1451402 L57.4727956,19.1451402 L57.4727956,19.1459201 Z" id="Shape" fill="#FFFFFF" fill-rule="nonzero"></path>
                </g>
            </g>
        </g>
    </g>
</svg>