<?xml version="1.0" encoding="UTF-8"?>
<svg width="269px" height="155px" viewBox="0 0 269 155" version="1.1" xmlns="http://www.w3.org/2000/svg" xmlns:xlink="http://www.w3.org/1999/xlink">
    <title>Pattern Copy 2</title>
    <g id="Symbols" stroke="none" stroke-width="1" fill="none" fill-rule="evenodd">
        <g id="Header-WSJG" transform="translate(-571.000000, 0.000000)">
            <g id="Group-2" transform="translate(0.000000, -74.000000)">
                <g id="Group" transform="translate(568.000000, 0.000000)">
                    <path d="M18.9793035,85.7324648 L18.9793035,112.790378 L46.0372171,112.790378 L46.0372171,116.172618 L15.5970643,116.172618 L15.5970643,85.7324648 L18.9793035,85.7324648 Z M44.4936995,90.2622453 L46.830687,92.7088205 L37.3984468,102.583364 L32.440199,97.3943409 L25.3449463,104.820579 L23.0079588,102.374004 L32.440199,92.4994601 L37.3984468,97.6884836 L44.4936995,90.2622453 Z" id="Shape" fill="#FFFFFF" fill-rule="nonzero" opacity="0.049999997"></path>
                    <path d="M201.888889,266 L201.888889,289.111111 L225,289.111111 L225,292 L199,292 L199,266 L201.888889,266 Z M223.93992,270 L226,272.184692 L217.685375,281.002258 L213.314625,276.368671 L207.06008,283 L205,280.815308 L213.314625,271.997742 L217.685375,276.631329 L223.93992,270 Z" id="Shape-Copy" fill="#FFFFFF" fill-rule="nonzero" opacity="0.049999997"></path>
                    <path d="M243.347885,180.486267 L243.347885,207.54418 L270.405798,207.54418 L270.405798,210.926419 L239.965645,210.926419 L239.965645,180.486267 L243.347885,180.486267 Z M269.643604,186.278903 L271.980591,188.725478 L262.548351,198.600022 L257.590103,193.410999 L250.49485,200.837237 L248.157863,198.390662 L257.590103,188.516118 L262.548351,193.705141 L269.643604,186.278903 Z" id="Shape-Copy-2" fill="#FFFFFF" fill-rule="nonzero" opacity="0.049999997"></path>
                    <path d="M206.347885,18.4862665 L206.347885,45.5441801 L233.405798,45.5441801 L233.405798,48.9264193 L202.965645,48.9264193 L202.965645,18.4862665 L206.347885,18.4862665 Z M232.643604,24.278903 L234.980591,26.7254782 L225.548351,36.6000221 L220.590103,31.4109986 L213.49485,38.8372369 L211.157863,36.3906617 L220.590103,26.5161178 L225.548351,31.7051413 L232.643604,24.278903 Z" id="Shape-Copy-3" fill="#FFFFFF" fill-rule="nonzero" opacity="0.049999997"></path>
                    <g id="Group-Copy-2" opacity="0.049999997" transform="translate(17.000000, 197.000000)" fill="#FFFFFF" fill-rule="nonzero">
                        <path d="M13.3333333,9.33333333 L13.3333333,14.6666667 L21.3333333,14.6666667 L21.3333333,9.33333333 L13.3333333,9.33333333 Z M10.6666667,9.33333333 L2.66666667,9.33333333 L2.66666667,14.6666667 L10.6666667,14.6666667 L10.6666667,9.33333333 Z M13.3333333,21.3333333 L21.3333333,21.3333333 L21.3333333,17.3333333 L13.3333333,17.3333333 L13.3333333,21.3333333 Z M10.6666667,21.3333333 L10.6666667,17.3333333 L2.66666667,17.3333333 L2.66666667,21.3333333 L10.6666667,21.3333333 Z M13.3333333,2.66666667 L13.3333333,6.66666667 L21.3333333,6.66666667 L21.3333333,2.66666667 L13.3333333,2.66666667 Z M10.6666667,2.66666667 L2.66666667,2.66666667 L2.66666667,6.66666667 L10.6666667,6.66666667 L10.6666667,2.66666667 Z M1.33333333,0 L22.6666667,0 C23.4030463,0 24,0.596953667 24,1.33333333 L24,22.6666667 C24,23.4030463 23.4030463,24 22.6666667,24 L1.33333333,24 C0.596953667,24 0,23.4030463 0,22.6666667 L0,1.33333333 C0,0.596953667 0.596953667,0 1.33333333,0 Z" id="Shape"></path>
                    </g>
                    <g id="Group-Copy-9" opacity="0.049999997" transform="translate(9.000000, 22.000000)" fill="#FFFFFF" fill-rule="nonzero">
                        <path d="M13.3333333,9.33333333 L13.3333333,14.6666667 L21.3333333,14.6666667 L21.3333333,9.33333333 L13.3333333,9.33333333 Z M10.6666667,9.33333333 L2.66666667,9.33333333 L2.66666667,14.6666667 L10.6666667,14.6666667 L10.6666667,9.33333333 Z M13.3333333,21.3333333 L21.3333333,21.3333333 L21.3333333,17.3333333 L13.3333333,17.3333333 L13.3333333,21.3333333 Z M10.6666667,21.3333333 L10.6666667,17.3333333 L2.66666667,17.3333333 L2.66666667,21.3333333 L10.6666667,21.3333333 Z M13.3333333,2.66666667 L13.3333333,6.66666667 L21.3333333,6.66666667 L21.3333333,2.66666667 L13.3333333,2.66666667 Z M10.6666667,2.66666667 L2.66666667,2.66666667 L2.66666667,6.66666667 L10.6666667,6.66666667 L10.6666667,2.66666667 Z M1.33333333,0 L22.6666667,0 C23.4030463,0 24,0.596953667 24,1.33333333 L24,22.6666667 C24,23.4030463 23.4030463,24 22.6666667,24 L1.33333333,24 C0.596953667,24 0,23.4030463 0,22.6666667 L0,1.33333333 C0,0.596953667 0.596953667,0 1.33333333,0 Z" id="Shape"></path>
                    </g>
                    <g opacity="0.049999997" transform="translate(161.419118, 67.686567)">
                        <polygon id="Path" points="0 2.36585858e-14 55.3837408 -4.80377377e-17 55.3837408 55.3837408 3.22813597e-14 55.3837408"></polygon>
                        <path d="M27.6918704,25.3842145 C34.0642861,25.3842145 39.2301497,30.5500781 39.2301497,36.9224939 L39.2301497,50.7684291 L34.614838,50.7684291 L34.614838,36.9224939 C34.6150422,33.2566496 31.7575482,30.2261274 28.0980178,30.0110645 L27.6918704,29.9995263 C24.0260261,29.9993221 20.9955039,32.8568161 20.7804411,36.5163464 L20.7689028,36.9224939 L20.7689028,50.7684291 L16.1535911,50.7684291 L16.1535911,36.9224939 C16.1535911,30.5500781 21.3194547,25.3842145 27.6918704,25.3842145 L27.6918704,25.3842145 Z M12.6921073,32.3071821 C13.3359433,32.3071821 13.961318,32.3833348 14.5613085,32.5241018 C14.166754,33.6987077 13.9330957,34.9213382 13.8667041,36.1586598 L13.8459352,36.9224939 L13.8459352,37.1209523 C13.5806777,37.0260355 13.3047732,36.9640345 13.0244097,36.9363398 L12.6921073,36.9224939 C10.9091618,36.9225794 9.41793982,38.2769646 9.24677706,40.0516752 L9.23062346,40.3839777 L9.23062346,50.7684291 L4.61531173,50.7684291 L4.61531173,40.3839777 C4.61531173,35.9232867 8.23141626,32.3071821 12.6921073,32.3071821 L12.6921073,32.3071821 Z M42.6916335,32.3071821 C47.1523245,32.3071821 50.7684291,35.9232867 50.7684291,40.3839777 L50.7684291,50.7684291 L46.1531173,50.7684291 L46.1531173,40.3839777 C46.1530317,38.6010322 44.7986466,37.1098102 43.023936,36.9386475 L42.6916335,36.9224939 C42.2877937,36.9224939 41.9001076,36.9917235 41.5378056,37.1186446 L41.5378056,36.9224939 C41.5378056,35.3855951 41.2885788,33.9086953 40.8247399,32.5287171 C41.4224228,32.3833348 42.0477975,32.3071821 42.6916335,32.3071821 Z M12.6921073,18.4612469 C15.8783151,18.4612469 18.4612469,21.0441787 18.4612469,24.2303866 C18.4612469,27.4165945 15.8783151,29.9995263 12.6921073,29.9995263 C9.50589941,29.9995263 6.9229676,27.4165945 6.9229676,24.2303866 C6.9229676,21.0441787 9.50589941,18.4612469 12.6921073,18.4612469 Z M42.6916335,18.4612469 C45.8778414,18.4612469 48.4607732,21.0441787 48.4607732,24.2303866 C48.4607732,27.4165945 45.8778414,29.9995263 42.6916335,29.9995263 C39.5054257,29.9995263 36.9224939,27.4165945 36.9224939,24.2303866 C36.9224939,21.0441787 39.5054257,18.4612469 42.6916335,18.4612469 Z M12.6921073,23.0765587 C12.0548657,23.0765587 11.5382793,23.593145 11.5382793,24.2303866 C11.5382793,24.8676282 12.0548657,25.3842145 12.6921073,25.3842145 C13.3293488,25.3842145 13.8459352,24.8676282 13.8459352,24.2303866 C13.8459352,23.593145 13.3293488,23.0765587 12.6921073,23.0765587 Z M42.6916335,23.0765587 C42.054392,23.0765587 41.5378056,23.593145 41.5378056,24.2303866 C41.5378056,24.8676282 42.054392,25.3842145 42.6916335,25.3842145 C43.3288751,25.3842145 43.8454615,24.8676282 43.8454615,24.2303866 C43.8454615,23.593145 43.3288751,23.0765587 42.6916335,23.0765587 Z M27.6918704,4.61531173 C32.789803,4.61531173 36.9224939,8.74800263 36.9224939,13.8459352 C36.9224939,18.9438678 32.789803,23.0765587 27.6918704,23.0765587 C22.5939378,23.0765587 18.4612469,18.9438678 18.4612469,13.8459352 C18.4612469,8.74800263 22.5939378,4.61531173 27.6918704,4.61531173 Z M27.6918704,9.23062346 C25.1429041,9.23062346 23.0765587,11.2969689 23.0765587,13.8459352 C23.0765587,16.3949015 25.1429041,18.4612469 27.6918704,18.4612469 C30.2408367,18.4612469 32.3071821,16.3949015 32.3071821,13.8459352 C32.3071821,11.2969689 30.2408367,9.23062346 27.6918704,9.23062346 Z" id="Shape" fill="#FFFFFF" fill-rule="nonzero"></path>
                    </g>
                    <g id="Group-Copy-4" opacity="0.049999997" transform="translate(55.000000, 129.000000)">
                        <polygon id="Path" points="0 1.37390099e-13 33 0 33 33 1.56510221e-13 33"></polygon>
                        <path d="M16,15.6 C19.8659932,15.6 23,18.7340068 23,22.6 L23,31 L20.2,31 L20.2,22.6 C20.2001239,20.3760193 18.4665501,18.5374735 16.2464,18.407 L16,18.4 C13.7760193,18.3998761 11.9374735,20.1334499 11.807,22.3536 L11.8,22.6 L11.8,31 L9,31 L9,22.6 C9,18.7340068 12.1340068,15.6 16,15.6 L16,15.6 Z M6.9,19.8 C7.2906,19.8 7.67,19.8462 8.034,19.9316 C7.79463314,20.6442055 7.65287822,21.3859464 7.6126,22.1366 L7.6,22.6 L7.6,22.7204 C7.4390746,22.6628163 7.27168989,22.6252017 7.1016,22.6084 L6.9,22.6 C5.81832932,22.6000519 4.91364038,23.4217252 4.8098,24.4984 L4.8,24.7 L4.8,31 L2,31 L2,24.7 C2,21.9938047 4.19380473,19.8 6.9,19.8 L6.9,19.8 Z M25.1,19.8 C27.8061953,19.8 30,21.9938047 30,24.7 L30,31 L27.2,31 L27.2,24.7 C27.1999481,23.6183293 26.3782748,22.7136404 25.3016,22.6098 L25.1,22.6 C24.855,22.6 24.6198,22.642 24.4,22.719 L24.4,22.6 C24.4,21.6676 24.2488,20.7716 23.9674,19.9344 C24.33,19.8462 24.7094,19.8 25.1,19.8 Z M6.9,11.4 C8.83299662,11.4 10.4,12.9670034 10.4,14.9 C10.4,16.8329966 8.83299662,18.4 6.9,18.4 C4.96700338,18.4 3.4,16.8329966 3.4,14.9 C3.4,12.9670034 4.96700338,11.4 6.9,11.4 Z M25.1,11.4 C27.0329966,11.4 28.6,12.9670034 28.6,14.9 C28.6,16.8329966 27.0329966,18.4 25.1,18.4 C23.1670034,18.4 21.6,16.8329966 21.6,14.9 C21.6,12.9670034 23.1670034,11.4 25.1,11.4 Z M6.9,14.2 C6.51340068,14.2 6.2,14.5134007 6.2,14.9 C6.2,15.2865993 6.51340068,15.6 6.9,15.6 C7.28659932,15.6 7.6,15.2865993 7.6,14.9 C7.6,14.5134007 7.28659932,14.2 6.9,14.2 Z M25.1,14.2 C24.7134007,14.2 24.4,14.5134007 24.4,14.9 C24.4,15.2865993 24.7134007,15.6 25.1,15.6 C25.4865993,15.6 25.8,15.2865993 25.8,14.9 C25.8,14.5134007 25.4865993,14.2 25.1,14.2 Z M16,3 C19.0927946,3 21.6,5.5072054 21.6,8.6 C21.6,11.6927946 19.0927946,14.2 16,14.2 C12.9072054,14.2 10.4,11.6927946 10.4,8.6 C10.4,5.5072054 12.9072054,3 16,3 Z M16,5.8 C14.4536027,5.8 13.2,7.0536027 13.2,8.6 C13.2,10.1463973 14.4536027,11.4 16,11.4 C17.5463973,11.4 18.8,10.1463973 18.8,8.6 C18.8,7.0536027 17.5463973,5.8 16,5.8 Z" id="Shape" fill="#FFFFFF" fill-rule="nonzero"></path>
                    </g>
                    <g id="Group-Copy-15" opacity="0.049999997" transform="translate(234.000000, 228.000000)">
                        <polygon id="Path" points="0 1.37390099e-13 33 0 33 33 1.56510221e-13 33"></polygon>
                        <path d="M16,15.6 C19.8659932,15.6 23,18.7340068 23,22.6 L23,31 L20.2,31 L20.2,22.6 C20.2001239,20.3760193 18.4665501,18.5374735 16.2464,18.407 L16,18.4 C13.7760193,18.3998761 11.9374735,20.1334499 11.807,22.3536 L11.8,22.6 L11.8,31 L9,31 L9,22.6 C9,18.7340068 12.1340068,15.6 16,15.6 L16,15.6 Z M6.9,19.8 C7.2906,19.8 7.67,19.8462 8.034,19.9316 C7.79463314,20.6442055 7.65287822,21.3859464 7.6126,22.1366 L7.6,22.6 L7.6,22.7204 C7.4390746,22.6628163 7.27168989,22.6252017 7.1016,22.6084 L6.9,22.6 C5.81832932,22.6000519 4.91364038,23.4217252 4.8098,24.4984 L4.8,24.7 L4.8,31 L2,31 L2,24.7 C2,21.9938047 4.19380473,19.8 6.9,19.8 L6.9,19.8 Z M25.1,19.8 C27.8061953,19.8 30,21.9938047 30,24.7 L30,31 L27.2,31 L27.2,24.7 C27.1999481,23.6183293 26.3782748,22.7136404 25.3016,22.6098 L25.1,22.6 C24.855,22.6 24.6198,22.642 24.4,22.719 L24.4,22.6 C24.4,21.6676 24.2488,20.7716 23.9674,19.9344 C24.33,19.8462 24.7094,19.8 25.1,19.8 Z M6.9,11.4 C8.83299662,11.4 10.4,12.9670034 10.4,14.9 C10.4,16.8329966 8.83299662,18.4 6.9,18.4 C4.96700338,18.4 3.4,16.8329966 3.4,14.9 C3.4,12.9670034 4.96700338,11.4 6.9,11.4 Z M25.1,11.4 C27.0329966,11.4 28.6,12.9670034 28.6,14.9 C28.6,16.8329966 27.0329966,18.4 25.1,18.4 C23.1670034,18.4 21.6,16.8329966 21.6,14.9 C21.6,12.9670034 23.1670034,11.4 25.1,11.4 Z M6.9,14.2 C6.51340068,14.2 6.2,14.5134007 6.2,14.9 C6.2,15.2865993 6.51340068,15.6 6.9,15.6 C7.28659932,15.6 7.6,15.2865993 7.6,14.9 C7.6,14.5134007 7.28659932,14.2 6.9,14.2 Z M25.1,14.2 C24.7134007,14.2 24.4,14.5134007 24.4,14.9 C24.4,15.2865993 24.7134007,15.6 25.1,15.6 C25.4865993,15.6 25.8,15.2865993 25.8,14.9 C25.8,14.5134007 25.4865993,14.2 25.1,14.2 Z M16,3 C19.0927946,3 21.6,5.5072054 21.6,8.6 C21.6,11.6927946 19.0927946,14.2 16,14.2 C12.9072054,14.2 10.4,11.6927946 10.4,8.6 C10.4,5.5072054 12.9072054,3 16,3 Z M16,5.8 C14.4536027,5.8 13.2,7.0536027 13.2,8.6 C13.2,10.1463973 14.4536027,11.4 16,11.4 C17.5463973,11.4 18.8,10.1463973 18.8,8.6 C18.8,7.0536027 17.5463973,5.8 16,5.8 Z" id="Shape" fill="#FFFFFF" fill-rule="nonzero"></path>
                    </g>
                    <g opacity="0.049999997" transform="translate(47.545599, 170.351680)">
                        <polygon id="Path" points="6.45998055e-17 -5.16798444e-16 74.478505 3.30751004e-14 74.478505 74.478505 6.77005962e-14 74.478505"></polygon>
                        <path d="M24.4964711,32.063097 L24.4964711,38.9084768 C20.7832272,41.0675483 18.2870332,45.1017671 18.2870332,49.7194344 C18.2870332,56.6147349 23.8444801,62.1996163 30.7059089,62.1996163 C35.3008929,62.1996163 39.3152944,59.6910998 41.4637599,55.9595254 L48.2724085,55.9595254 C45.7172248,63.2292313 38.8154347,68.4397073 30.7059089,68.4397073 C20.4168704,68.4397073 12.0775954,60.0592651 12.0775954,49.7194344 C12.0775954,41.5667556 17.262476,34.6340145 24.4964711,32.063097 Z M36.9153467,52.8394799 C31.7708275,52.8394799 27.60119,48.6492588 27.60119,43.4793434 L27.60119,30.9991615 C27.60119,27.7418341 29.2591099,24.8713922 31.7708275,23.1959278 C29.2560052,21.5267035 27.60119,18.6562616 27.60119,15.3989341 C27.60119,10.2290188 31.7708275,6.0387977 36.9153467,6.0387977 C42.059866,6.0387977 46.2295035,10.2290188 46.2295035,15.3989341 C46.2295035,18.6562616 44.5715836,21.5267035 42.059866,23.2021679 C44.5746883,24.8713922 46.2295035,27.7418341 46.2295035,30.9991615 L46.2295035,46.5962689 L50.6816704,46.5993889 C52.6935282,46.5993889 54.5718832,47.5790832 55.7299433,49.2077469 L56.0062633,49.6289531 L64.4138421,63.7159584 L59.0923539,66.9233652 L50.6785657,52.8394799 L46.2295035,52.8363598 L36.9153467,52.8394799 Z M36.9153467,27.8791161 C35.2015419,27.8791161 33.8106278,29.2768964 33.8106278,30.9991615 L33.8106278,43.4793434 C33.8106278,45.2016086 35.2015419,46.5993889 36.9153467,46.5993889 L40.0169609,46.5993889 L40.0200656,30.9991615 C40.0200656,29.2768964 38.6291516,27.8791161 36.9153467,27.8791161 Z M36.9153467,12.2788887 C35.2015419,12.2788887 33.8106278,13.676669 33.8106278,15.3989341 C33.8106278,17.1211992 35.2015419,18.5189796 36.9153467,18.5189796 C38.6291516,18.5189796 40.0200656,17.1211992 40.0200656,15.3989341 C40.0200656,13.676669 38.6291516,12.2788887 36.9153467,12.2788887 Z" id="Shape" fill="#FFFFFF" fill-rule="nonzero"></path>
                    </g>
                    <g id="Group-Copy-8" opacity="0.049999997" transform="translate(34.545599, 8.351680)">
                        <polygon id="Path" points="6.45998055e-17 -5.16798444e-16 74.478505 3.30751004e-14 74.478505 74.478505 6.77005962e-14 74.478505"></polygon>
                        <path d="M24.4964711,32.063097 L24.4964711,38.9084768 C20.7832272,41.0675483 18.2870332,45.1017671 18.2870332,49.7194344 C18.2870332,56.6147349 23.8444801,62.1996163 30.7059089,62.1996163 C35.3008929,62.1996163 39.3152944,59.6910998 41.4637599,55.9595254 L48.2724085,55.9595254 C45.7172248,63.2292313 38.8154347,68.4397073 30.7059089,68.4397073 C20.4168704,68.4397073 12.0775954,60.0592651 12.0775954,49.7194344 C12.0775954,41.5667556 17.262476,34.6340145 24.4964711,32.063097 Z M36.9153467,52.8394799 C31.7708275,52.8394799 27.60119,48.6492588 27.60119,43.4793434 L27.60119,30.9991615 C27.60119,27.7418341 29.2591099,24.8713922 31.7708275,23.1959278 C29.2560052,21.5267035 27.60119,18.6562616 27.60119,15.3989341 C27.60119,10.2290188 31.7708275,6.0387977 36.9153467,6.0387977 C42.059866,6.0387977 46.2295035,10.2290188 46.2295035,15.3989341 C46.2295035,18.6562616 44.5715836,21.5267035 42.059866,23.2021679 C44.5746883,24.8713922 46.2295035,27.7418341 46.2295035,30.9991615 L46.2295035,46.5962689 L50.6816704,46.5993889 C52.6935282,46.5993889 54.5718832,47.5790832 55.7299433,49.2077469 L56.0062633,49.6289531 L64.4138421,63.7159584 L59.0923539,66.9233652 L50.6785657,52.8394799 L46.2295035,52.8363598 L36.9153467,52.8394799 Z M36.9153467,27.8791161 C35.2015419,27.8791161 33.8106278,29.2768964 33.8106278,30.9991615 L33.8106278,43.4793434 C33.8106278,45.2016086 35.2015419,46.5993889 36.9153467,46.5993889 L40.0169609,46.5993889 L40.0200656,30.9991615 C40.0200656,29.2768964 38.6291516,27.8791161 36.9153467,27.8791161 Z M36.9153467,12.2788887 C35.2015419,12.2788887 33.8106278,13.676669 33.8106278,15.3989341 C33.8106278,17.1211992 35.2015419,18.5189796 36.9153467,18.5189796 C38.6291516,18.5189796 40.0200656,17.1211992 40.0200656,15.3989341 C40.0200656,13.676669 38.6291516,12.2788887 36.9153467,12.2788887 Z" id="Shape" fill="#FFFFFF" fill-rule="nonzero"></path>
                    </g>
                    <g id="Group-Copy-3" opacity="0.049999997" transform="translate(218.500000, 151.500000) scale(-1, 1) translate(-218.500000, -151.500000) translate(197.000000, 130.000000)">
                        <polygon id="Path" points="0 0 43 2.71145953e-14 43 43 2.62567745e-14 43"></polygon>
                        <path d="M12.3559945,19.0138 L12.3559945,22.963 C10.1565522,24.2086 8.67799727,26.536 8.67799727,29.2 C8.67799727,33.178 11.9698048,36.4 16.0339918,36.4 C18.7557098,36.4 21.133535,34.9528 22.4061221,32.8 L26.4390461,32.8 C24.9255502,36.994 20.8374562,40 16.0339918,40 C9.93955034,40 5,35.1652 5,29.2 C5,24.4966 8.07112772,20.497 12.3559945,19.0138 Z M19.7119891,31 C16.6647683,31 14.1949932,28.5826 14.1949932,25.6 L14.1949932,18.4 C14.1949932,16.5208 15.1770184,14.8648 16.6647683,13.8982 C15.1751795,12.9352 14.1949932,11.2792 14.1949932,9.4 C14.1949932,6.4174 16.6647683,4 19.7119891,4 C22.7592098,4 25.228985,6.4174 25.228985,9.4 C25.228985,11.2792 24.2469597,12.9352 22.7592098,13.9018 C24.2487987,14.8648 25.228985,16.5208 25.228985,18.4 L25.228985,27.3982 L27.866109,27.4 C29.0577802,27.4 30.1703743,27.9652 30.8563208,28.9048 L31.0199917,29.1478 L36,37.2748 L32.8479563,39.1252 L27.86427,31 L25.228985,30.9982 L19.7119891,31 Z M19.7119891,16.6 C18.6968618,16.6 17.8729904,17.4064 17.8729904,18.4 L17.8729904,25.6 C17.8729904,26.5936 18.6968618,27.4 19.7119891,27.4 L21.5491487,27.4 L21.5509877,18.4 C21.5509877,17.4064 20.7271163,16.6 19.7119891,16.6 Z M19.7119891,7.6 C18.6968618,7.6 17.8729904,8.4064 17.8729904,9.4 C17.8729904,10.3936 18.6968618,11.2 19.7119891,11.2 C20.7271163,11.2 21.5509877,10.3936 21.5509877,9.4 C21.5509877,8.4064 20.7271163,7.6 19.7119891,7.6 Z" id="Shape" fill="#FFFFFF" fill-rule="nonzero"></path>
                    </g>
                    <g id="Group-Copy-5" opacity="0.049999997" transform="translate(108.672620, 123.998617)">
                        <polygon id="Path" points="1.28330527e-13 0 67.4977302 9.32035581e-14 67.4977302 67.4977302 0 67.4977302"></polygon>
                        <path d="M17.8068878,53.8987024 L51.0143273,53.8987024 L51.0143273,26.052273 L34.4106075,10.6225843 L17.8068878,26.052273 L17.8068878,53.8987024 Z M53.7816139,59.5568207 L15.0396012,59.5568207 C13.511271,59.5568207 12.2723146,58.2902078 12.2723146,56.7277616 L12.2723146,31.266229 L3.97045472,31.266229 L32.5482236,4.70702154 C33.6039948,3.72493244 35.2172203,3.72493244 36.2729914,4.70702154 L64.8507604,31.266229 L56.5489005,31.266229 L56.5489005,56.7277616 C56.5489005,58.2902078 55.3099441,59.5568207 53.7816139,59.5568207 Z M21.9578177,36.9243474 L27.492391,36.9243474 C27.492391,40.830463 30.589782,43.9969953 34.4106075,43.9969953 C38.231433,43.9969953 41.3288241,40.830463 41.3288241,36.9243474 L46.8633973,36.9243474 C46.8633973,43.9553554 41.2880934,49.6551136 34.4106075,49.6551136 C27.5331216,49.6551136 21.9578177,43.9553554 21.9578177,36.9243474 Z" id="Shape" fill="#FFFFFF" fill-rule="nonzero"></path>
                    </g>
                    <g opacity="0.049999997" transform="translate(230.000000, 56.000000)">
                        <polygon id="Path" points="5.1789302e-14 9.74220704e-14 39 -2.70616862e-16 39 39 6.76542156e-17 39"></polygon>
                        <path d="M9.95454545,30.7427303 L29.0454545,30.7427303 L29.0454545,14.7120774 L19.5,5.82950282 L9.95454545,14.7120774 L9.95454545,30.7427303 Z M30.6363636,34 L8.36363636,34 C7.48500153,34 6.77272727,33.2708353 6.77272727,32.3713651 L6.77272727,17.7136514 L2,17.7136514 L18.4293182,2.42402733 C19.0362795,1.85865756 19.9637205,1.85865756 20.5706818,2.42402733 L37,17.7136514 L32.2272727,17.7136514 L32.2272727,32.3713651 C32.2272727,33.2708353 31.5149985,34 30.6363636,34 Z M12.3409091,20.9709211 L15.5227273,20.9709211 C15.5227273,23.2195966 17.3034129,25.0425083 19.5,25.0425083 C21.6965871,25.0425083 23.4772727,23.2195966 23.4772727,20.9709211 L26.6590909,20.9709211 C26.6590909,25.018537 23.4538567,28.299778 19.5,28.299778 C15.5461433,28.299778 12.3409091,25.018537 12.3409091,20.9709211 Z" id="Shape" fill="#FFFFFF" fill-rule="nonzero"></path>
                    </g>
                    <g transform="translate(82.000000, 97.000000)">
                        <polygon id="Path" points="0 0 30 0 30 30 0 30"></polygon>
                        <path d="M23.5230907,13.48338 C25.4923031,15.4359408 25.4923031,18.6043177 23.5230907,20.5581293 L16.3913144,27.6341294 C15.8996417,28.1219569 15.1003583,28.1219569 14.6086856,27.6341294 L7.4769093,20.5581293 C5.5076969,18.6043177 5.5076969,15.4359408 7.4769093,13.4821292 C9.44612169,11.5283176 12.6394732,11.5283176 14.6086856,13.4821292 L15.4987393,14.3664729 L16.3913144,13.4821292 C18.3605268,11.5283176 21.5538783,11.5283176 23.5230907,13.4821292 L23.5230907,13.48338 Z M15.5,1 C18.2861456,1 20.5427974,3.23900303 20.5427974,6.00335874 C20.5427974,8.76771444 18.2861456,11.0067175 15.5,11.0067175 C12.7138544,11.0067175 10.4572026,8.76771444 10.4572026,6.00335874 C10.4572026,3.23900303 12.7138544,1 15.5,1 Z" id="Shape" fill="#FFFFFF" fill-rule="nonzero" opacity="0.05"></path>
                    </g>
                    <g id="Group-Copy-13" transform="translate(5.000000, 242.000000)">
                        <polygon id="Path" points="0 0 30 0 30 30 0 30"></polygon>
                        <path d="M23.5230907,13.48338 C25.4923031,15.4359408 25.4923031,18.6043177 23.5230907,20.5581293 L16.3913144,27.6341294 C15.8996417,28.1219569 15.1003583,28.1219569 14.6086856,27.6341294 L7.4769093,20.5581293 C5.5076969,18.6043177 5.5076969,15.4359408 7.4769093,13.4821292 C9.44612169,11.5283176 12.6394732,11.5283176 14.6086856,13.4821292 L15.4987393,14.3664729 L16.3913144,13.4821292 C18.3605268,11.5283176 21.5538783,11.5283176 23.5230907,13.4821292 L23.5230907,13.48338 Z M15.5,1 C18.2861456,1 20.5427974,3.23900303 20.5427974,6.00335874 C20.5427974,8.76771444 18.2861456,11.0067175 15.5,11.0067175 C12.7138544,11.0067175 10.4572026,8.76771444 10.4572026,6.00335874 C10.4572026,3.23900303 12.7138544,1 15.5,1 Z" id="Shape" fill="#FFFFFF" fill-rule="nonzero" opacity="0.05"></path>
                    </g>
                    <g id="Group-Copy" transform="translate(169.000000, 183.000000)">
                        <polygon id="Path" points="0 0 59 0 59 59 0 59"></polygon>
                        <path d="M46.1239135,26.5044127 C49.9586955,30.3372171 49.9586955,36.5566237 46.1239135,40.3918834 L32.2357176,54.2818095 C31.2782496,55.2393968 29.7217504,55.2393968 28.7642824,54.2818095 L14.8760865,40.3918834 C11.0413045,36.5566237 11.0413045,30.3372171 14.8760865,26.5019573 C18.7108686,22.6666976 24.9295004,22.6666976 28.7642824,26.5019573 L30.497545,28.2378912 L32.2357176,26.5019573 C36.0704996,22.6666976 42.2891314,22.6666976 46.1239135,26.5019573 L46.1239135,26.5044127 Z M30.5,2 C35.9256519,2 40.3201845,6.39508003 40.3201845,11.8214079 C40.3201845,17.2477357 35.9256519,21.6428158 30.5,21.6428158 C25.0743481,21.6428158 20.6798155,17.2477357 20.6798155,11.8214079 C20.6798155,6.39508003 25.0743481,2 30.5,2 Z" id="Shape" fill="#FFFFFF" fill-rule="nonzero" opacity="0.05"></path>
                    </g>
                    <g id="Group-Copy-10" transform="translate(133.000000, 4.000000)">
                        <polygon id="Path" points="0 0 59 0 59 59 0 59"></polygon>
                        <path d="M46.1239135,26.5044127 C49.9586955,30.3372171 49.9586955,36.5566237 46.1239135,40.3918834 L32.2357176,54.2818095 C31.2782496,55.2393968 29.7217504,55.2393968 28.7642824,54.2818095 L14.8760865,40.3918834 C11.0413045,36.5566237 11.0413045,30.3372171 14.8760865,26.5019573 C18.7108686,22.6666976 24.9295004,22.6666976 28.7642824,26.5019573 L30.497545,28.2378912 L32.2357176,26.5019573 C36.0704996,22.6666976 42.2891314,22.6666976 46.1239135,26.5019573 L46.1239135,26.5044127 Z M30.5,2 C35.9256519,2 40.3201845,6.39508003 40.3201845,11.8214079 C40.3201845,17.2477357 35.9256519,21.6428158 30.5,21.6428158 C25.0743481,21.6428158 20.6798155,17.2477357 20.6798155,11.8214079 C20.6798155,6.39508003 25.0743481,2 30.5,2 Z" id="Shape" fill="#FFFFFF" fill-rule="nonzero" opacity="0.05"></path>
                    </g>
                    <g opacity="0.049999997" transform="translate(126.000000, 199.000000)">
                        <polygon id="Path" points="0 0 24 0 24 24 0 24"></polygon>
                        <path d="M19,19.9999992 L5,19.9999992 L5,20.9999992 C5,21.5522847 4.55228475,21.9999992 4,21.9999992 L3,21.9999992 C2.44771525,21.9999992 2,21.5522847 2,20.9999992 L2,10.9999992 L4.48,5.212 C4.79545147,4.47612415 5.51936126,3.99928792 6.32,3.9999992 L17.68,3.9999992 C18.4799122,3.9999992 19.2028346,4.47679238 19.518,5.212 L22,10.9999992 L22,20.9999992 C22,21.5522847 21.5522847,21.9999992 21,21.9999992 L20,21.9999992 C19.4477153,21.9999992 19,21.5522847 19,20.9999992 L19,19.9999992 Z M20,13 L4,13 L4,18 L20,18 L20,13 Z M4.176,11 L19.824,11 L17.681,6 L6.32,6 L4.177,11 L4.176,11 Z M6.5,17 C5.67157288,17 5,16.3284271 5,15.5 C5,14.6715729 5.67157288,14 6.5,14 C7.32842712,14 8,14.6715729 8,15.5 C8,16.3284271 7.32842712,17 6.5,17 Z M17.5,17 C16.6715729,17 16,16.3284271 16,15.5 C16,14.6715729 16.6715729,14 17.5,14 C18.3284271,14 19,14.6715729 19,15.5 C19,16.3284271 18.3284271,17 17.5,17 Z" id="Shape" fill="#FFFFFF" fill-rule="nonzero"></path>
                    </g>
                    <g id="Group-Copy-11" opacity="0.049999997" transform="translate(102.000000, 21.000000)">
                        <polygon id="Path" points="0 0 24 0 24 24 0 24"></polygon>
                        <path d="M19,19.9999992 L5,19.9999992 L5,20.9999992 C5,21.5522847 4.55228475,21.9999992 4,21.9999992 L3,21.9999992 C2.44771525,21.9999992 2,21.5522847 2,20.9999992 L2,10.9999992 L4.48,5.212 C4.79545147,4.47612415 5.51936126,3.99928792 6.32,3.9999992 L17.68,3.9999992 C18.4799122,3.9999992 19.2028346,4.47679238 19.518,5.212 L22,10.9999992 L22,20.9999992 C22,21.5522847 21.5522847,21.9999992 21,21.9999992 L20,21.9999992 C19.4477153,21.9999992 19,21.5522847 19,20.9999992 L19,19.9999992 Z M20,13 L4,13 L4,18 L20,18 L20,13 Z M4.176,11 L19.824,11 L17.681,6 L6.32,6 L4.177,11 L4.176,11 Z M6.5,17 C5.67157288,17 5,16.3284271 5,15.5 C5,14.6715729 5.67157288,14 6.5,14 C7.32842712,14 8,14.6715729 8,15.5 C8,16.3284271 7.32842712,17 6.5,17 Z M17.5,17 C16.6715729,17 16,16.3284271 16,15.5 C16,14.6715729 16.6715729,14 17.5,14 C18.3284271,14 19,14.6715729 19,15.5 C19,16.3284271 18.3284271,17 17.5,17 Z" id="Shape" fill="#FFFFFF" fill-rule="nonzero"></path>
                    </g>
                    <g id="Group-Copy-12" opacity="0.049999997" transform="translate(256.000000, 10.000000)">
                        <polygon id="Path" points="0 0 24 0 24 24 0 24"></polygon>
                        <path d="M19,19.9999992 L5,19.9999992 L5,20.9999992 C5,21.5522847 4.55228475,21.9999992 4,21.9999992 L3,21.9999992 C2.44771525,21.9999992 2,21.5522847 2,20.9999992 L2,10.9999992 L4.48,5.212 C4.79545147,4.47612415 5.51936126,3.99928792 6.32,3.9999992 L17.68,3.9999992 C18.4799122,3.9999992 19.2028346,4.47679238 19.518,5.212 L22,10.9999992 L22,20.9999992 C22,21.5522847 21.5522847,21.9999992 21,21.9999992 L20,21.9999992 C19.4477153,21.9999992 19,21.5522847 19,20.9999992 L19,19.9999992 Z M20,13 L4,13 L4,18 L20,18 L20,13 Z M4.176,11 L19.824,11 L17.681,6 L6.32,6 L4.177,11 L4.176,11 Z M6.5,17 C5.67157288,17 5,16.3284271 5,15.5 C5,14.6715729 5.67157288,14 6.5,14 C7.32842712,14 8,14.6715729 8,15.5 C8,16.3284271 7.32842712,17 6.5,17 Z M17.5,17 C16.6715729,17 16,16.3284271 16,15.5 C16,14.6715729 16.6715729,14 17.5,14 C18.3284271,14 19,14.6715729 19,15.5 C19,16.3284271 18.3284271,17 17.5,17 Z" id="Shape" fill="#FFFFFF" fill-rule="nonzero"></path>
                    </g>
                    <g id="Group-Copy-6" opacity="0.049999997" transform="translate(245.000000, 109.000000)">
                        <polygon id="Path" points="0 0 29 0 29 29 0 29"></polygon>
                        <path d="M23.4,24.5555566 L6.6,24.5555566 L6.6,25.7777788 C6.6,26.4527935 6.0627417,27.000001 5.4,27.000001 L4.2,27.000001 C3.5372583,27.000001 3,26.4527935 3,25.7777788 L3,13.5555571 L5.976,6.48133521 C6.35454177,5.58193143 7.22323351,4.99913162 8.184,5.00000097 L21.816,5.00000097 C22.7758946,5.00000097 23.6434015,5.58274816 24.0216,6.48133521 L27,13.5555571 L27,25.7777788 C27,26.4527935 26.4627417,27.000001 25.8,27.000001 L24.6,27.000001 C23.9372583,27.000001 23.4,26.4527935 23.4,25.7777788 L23.4,24.5555566 Z M24.6,16.0000015 L5.4,16.0000015 L5.4,22.1111123 L24.6,22.1111123 L24.6,16.0000015 Z M5.6112,13.5555571 L24.3888,13.5555571 L21.8172,7.44444628 L8.184,7.44444628 L5.6124,13.5555571 L5.6112,13.5555571 Z M8.4,20.8888901 C7.40588745,20.8888901 6.6,20.0680789 6.6,19.0555569 C6.6,18.0430349 7.40588745,17.2222236 8.4,17.2222236 C9.39411255,17.2222236 10.2,18.0430349 10.2,19.0555569 C10.2,20.0680789 9.39411255,20.8888901 8.4,20.8888901 Z M21.6,20.8888901 C20.6058875,20.8888901 19.8,20.0680789 19.8,19.0555569 C19.8,18.0430349 20.6058875,17.2222236 21.6,17.2222236 C22.5941125,17.2222236 23.4,18.0430349 23.4,19.0555569 C23.4,20.0680789 22.5941125,20.8888901 21.6,20.8888901 Z" id="Shape" fill="#FFFFFF" fill-rule="nonzero"></path>
                    </g>
                    <g id="Group-Copy-16" opacity="0.049999997" transform="translate(91.000000, 259.000000)">
                        <polygon id="Path" points="0 0 29 0 29 29 0 29"></polygon>
                        <path d="M23.4,24.5555566 L6.6,24.5555566 L6.6,25.7777788 C6.6,26.4527935 6.0627417,27.000001 5.4,27.000001 L4.2,27.000001 C3.5372583,27.000001 3,26.4527935 3,25.7777788 L3,13.5555571 L5.976,6.48133521 C6.35454177,5.58193143 7.22323351,4.99913162 8.184,5.00000097 L21.816,5.00000097 C22.7758946,5.00000097 23.6434015,5.58274816 24.0216,6.48133521 L27,13.5555571 L27,25.7777788 C27,26.4527935 26.4627417,27.000001 25.8,27.000001 L24.6,27.000001 C23.9372583,27.000001 23.4,26.4527935 23.4,25.7777788 L23.4,24.5555566 Z M24.6,16.0000015 L5.4,16.0000015 L5.4,22.1111123 L24.6,22.1111123 L24.6,16.0000015 Z M5.6112,13.5555571 L24.3888,13.5555571 L21.8172,7.44444628 L8.184,7.44444628 L5.6124,13.5555571 L5.6112,13.5555571 Z M8.4,20.8888901 C7.40588745,20.8888901 6.6,20.0680789 6.6,19.0555569 C6.6,18.0430349 7.40588745,17.2222236 8.4,17.2222236 C9.39411255,17.2222236 10.2,18.0430349 10.2,19.0555569 C10.2,20.0680789 9.39411255,20.8888901 8.4,20.8888901 Z M21.6,20.8888901 C20.6058875,20.8888901 19.8,20.0680789 19.8,19.0555569 C19.8,18.0430349 20.6058875,17.2222236 21.6,17.2222236 C22.5941125,17.2222236 23.4,18.0430349 23.4,19.0555569 C23.4,20.0680789 22.5941125,20.8888901 21.6,20.8888901 Z" id="Shape" fill="#FFFFFF" fill-rule="nonzero"></path>
                    </g>
                    <g opacity="0.049999997" transform="translate(114.000000, 70.000000)">
                        <polygon id="Path" points="0 0 39 0 39 39 0 39"></polygon>
                        <path d="M9.52631579,3 C13.9152632,3 17.7233684,5.50305 19.6372105,9.17265 C21.5575789,6.43695 24.7163158,4.65 28.2894737,4.65 L34,4.65 L34,8.775 C34,14.6985 29.2521053,19.5 23.3947368,19.5 L20.9473684,19.5 L20.9473684,21.15 L29.1052632,21.15 L29.1052632,32.7 C29.1052632,34.52325 27.645,36 25.8421053,36 L12.7894737,36 C10.9865789,36 9.52631579,34.52325 9.52631579,32.7 L9.52631579,21.15 L17.6842105,21.15 L17.6842105,17.85 L14.4210526,17.85 C8.11336842,17.85 3,12.6789 3,6.3 L3,3 L9.52631579,3 Z M25.8421053,24.45 L12.7894737,24.45 L12.7894737,32.7 L25.8421053,32.7 L25.8421053,24.45 Z M30.7368421,7.95 L28.2894737,7.95 C24.235,7.95 20.9473684,11.27475 20.9473684,15.375 L20.9473684,16.2 L23.3947368,16.2 C27.4492105,16.2 30.7368421,12.87525 30.7368421,8.775 L30.7368421,7.95 Z M9.52631579,6.3 L6.26315789,6.3 C6.26315789,10.85565 9.91626316,14.55 14.4210526,14.55 L17.6842105,14.55 C17.6842105,9.99435 14.0311053,6.3 9.52631579,6.3 Z" id="Shape" fill="#FFFFFF" fill-rule="nonzero"></path>
                    </g>
                    <g id="Group-Copy-7" opacity="0.049999997" transform="translate(0.000000, 135.000000)">
                        <polygon id="Path" points="0 0 42 0 42 42 0 42"></polygon>
                        <path d="M10.1578947,4 C14.9715789,4 19.1482105,6.65475 21.2472632,10.54675 C23.3534737,7.64525 26.8178947,5.75 30.7368421,5.75 L37,5.75 L37,10.125 C37,16.4075 31.7926316,21.5 25.3684211,21.5 L22.6842105,21.5 L22.6842105,23.25 L31.6315789,23.25 L31.6315789,35.5 C31.6315789,37.43375 30.03,39 28.0526316,39 L13.7368421,39 C11.7594737,39 10.1578947,37.43375 10.1578947,35.5 L10.1578947,23.25 L19.1052632,23.25 L19.1052632,19.75 L15.5263158,19.75 C8.60821053,19.75 3,14.2655 3,7.5 L3,4 L10.1578947,4 Z M28.0526316,26.75 L13.7368421,26.75 L13.7368421,35.5 L28.0526316,35.5 L28.0526316,26.75 Z M33.4210526,9.25 L30.7368421,9.25 C26.29,9.25 22.6842105,12.77625 22.6842105,17.125 L22.6842105,18 L25.3684211,18 C29.8152632,18 33.4210526,14.47375 33.4210526,10.125 L33.4210526,9.25 Z M10.1578947,7.5 L6.57894737,7.5 C6.57894737,12.33175 10.5855789,16.25 15.5263158,16.25 L19.1052632,16.25 C19.1052632,11.41825 15.0986316,7.5 10.1578947,7.5 Z" id="Shape" fill="#FFFFFF" fill-rule="nonzero"></path>
                    </g>
                    <g id="Group-Copy-17" opacity="0.049999997" transform="translate(46.000000, 252.000000)">
                        <polygon id="Path" points="0 0 28 0 28 28 0 28"></polygon>
                        <path d="M6.84210526,3 C10.0984211,3 12.9237895,4.74455 14.3437368,7.30215 C15.7685263,5.39545 18.1121053,4.15 20.7631579,4.15 L25,4.15 L25,7.025 C25,11.1535 21.4773684,14.5 17.1315789,14.5 L15.3157895,14.5 L15.3157895,15.65 L21.3684211,15.65 L21.3684211,23.7 C21.3684211,24.97075 20.285,26 18.9473684,26 L9.26315789,26 C7.92552632,26 6.84210526,24.97075 6.84210526,23.7 L6.84210526,15.65 L12.8947368,15.65 L12.8947368,13.35 L10.4736842,13.35 C5.79378947,13.35 2,9.7459 2,5.3 L2,3 L6.84210526,3 Z M18.9473684,17.95 L9.26315789,17.95 L9.26315789,23.7 L18.9473684,23.7 L18.9473684,17.95 Z M22.5789474,6.45 L20.7631579,6.45 C17.755,6.45 15.3157895,8.76725 15.3157895,11.625 L15.3157895,12.2 L17.1315789,12.2 C20.1397368,12.2 22.5789474,9.88275 22.5789474,7.025 L22.5789474,6.45 Z M6.84210526,5.3 L4.42105263,5.3 C4.42105263,8.47515 7.13142105,11.05 10.4736842,11.05 L12.8947368,11.05 C12.8947368,7.87485 10.1843684,5.3 6.84210526,5.3 Z" id="Shape" fill="#FFFFFF" fill-rule="nonzero"></path>
                    </g>
                    <g id="Group-Copy-14" opacity="0.049999997" transform="translate(133.000000, 243.000000)">
                        <polygon id="Path" points="0 0 52 0 52 52 0 52"></polygon>
                        <path d="M12.8421053,5 C18.7884211,5 23.9477895,8.26155 26.5407368,13.04315 C29.1425263,9.47845 33.4221053,7.15 38.2631579,7.15 L46,7.15 L46,12.525 C46,20.2435 39.5673684,26.5 31.6315789,26.5 L28.3157895,26.5 L28.3157895,28.65 L39.3684211,28.65 L39.3684211,43.7 C39.3684211,46.07575 37.39,48 34.9473684,48 L17.2631579,48 C14.8205263,48 12.8421053,46.07575 12.8421053,43.7 L12.8421053,28.65 L23.8947368,28.65 L23.8947368,24.35 L19.4736842,24.35 C10.9277895,24.35 4,17.6119 4,9.3 L4,5 L12.8421053,5 Z M34.9473684,32.95 L17.2631579,32.95 L17.2631579,43.7 L34.9473684,43.7 L34.9473684,32.95 Z M41.5789474,11.45 L38.2631579,11.45 C32.77,11.45 28.3157895,15.78225 28.3157895,21.125 L28.3157895,22.2 L31.6315789,22.2 C37.1247368,22.2 41.5789474,17.86775 41.5789474,12.525 L41.5789474,11.45 Z M12.8421053,9.3 L8.42105263,9.3 C8.42105263,15.23615 13.3704211,20.05 19.4736842,20.05 L23.8947368,20.05 C23.8947368,14.11385 18.9453684,9.3 12.8421053,9.3 Z" id="Shape" fill="#FFFFFF" fill-rule="nonzero"></path>
                    </g>
                </g>
            </g>
        </g>
    </g>
</svg>